#N canvas 602 22 976 474 8;
#X obj 121 61 f \$0;
#N canvas 0 22 553 337 route-sends 0;
#X obj 91 58 unpack 0 0 0 0 0;
#X obj 91 82 s \$0.effect.1.chin;
#X obj 114 102 s \$0.effect.2.chin;
#X obj 137 122 s \$0.effect.3.chin;
#X obj 160 142 s \$0.effect.4.chin;
#X obj 184 162 s \$0.output.chin;
#X obj 91 40 r \$0.route;
#X connect 0 0 1 0;
#X connect 0 1 2 0;
#X connect 0 2 3 0;
#X connect 0 3 4 0;
#X connect 0 4 5 0;
#X connect 6 0 0 0;
#X restore 15 40 pd route-sends;
#N canvas 0 22 833 212 effects 0;
#X obj 40 73 rschannel~ \$0.effect \$0.input;
#X obj 231 73 rschannel~ \$0.effect \$0.input;
#X obj 423 73 rschannel~ \$0.effect \$0.input;
#X obj 615 72 rschannel~ \$0.effect \$0.input;
#X obj 40 114 ssend~ \$0.effect.1;
#X obj 231 114 ssend~ \$0.effect.2;
#X obj 423 114 ssend~ \$0.effect.3;
#X obj 615 114 ssend~ \$0.effect.4;
#X obj 40 53 r \$0.effect.1.chin;
#X obj 231 53 r \$0.effect.2.chin;
#X obj 423 53 r \$0.effect.3.chin;
#X obj 615 52 r \$0.effect.4.chin;
#X obj 40 94 slop~ \$0 1;
#X obj 231 94 ship~ \$0 1;
#X obj 423 94 stremolo~ \$0 1;
#X obj 615 94 sdelay~ \$0 1;
#X connect 0 0 12 0;
#X connect 0 1 12 1;
#X connect 1 0 13 0;
#X connect 1 1 13 1;
#X connect 2 0 14 0;
#X connect 2 1 14 1;
#X connect 3 0 15 0;
#X connect 3 1 15 1;
#X connect 8 0 0 0;
#X connect 9 0 1 0;
#X connect 10 0 2 0;
#X connect 11 0 3 0;
#X connect 12 0 4 0;
#X connect 12 1 4 1;
#X connect 13 0 5 0;
#X connect 13 1 5 1;
#X connect 14 0 6 0;
#X connect 14 1 6 1;
#X connect 15 0 7 0;
#X connect 15 1 7 1;
#X restore 15 62 pd effects;
#N canvas 0 22 450 300 input 0;
#X obj 32 97 ssend~ \$0.input;
#X obj 32 64 adc~;
#X connect 1 0 0 0;
#X connect 1 1 0 1;
#X restore 15 18 pd input;
#N canvas 0 22 450 300 output 0;
#X obj 29 132 dac~;
#X obj 29 107 rschannel~ \$0.effect \$0.input;
#X obj 29 86 r \$0.output.chin;
#X connect 1 0 0 0;
#X connect 1 1 0 1;
#X connect 2 0 1 0;
#X restore 15 83 pd output;
#X obj 121 39 bng 15 250 50 0 empty empty empty 17 7 0 10 -262144 -1
-1;
#X obj 303 61 f \$0;
#X obj 303 39 bng 15 250 50 0 empty empty empty 17 7 0 10 -262144 -1
-1;
#X obj 121 193 f \$0;
#X obj 121 171 bng 15 250 50 0 empty empty empty 17 7 0 10 -262144
-1 -1;
#X text 119 15 p r e s e t s;
#X msg 121 81 \; \$1.slop~.1 428 \; \$1.ship~.1 10000 \; \$1.stremolo~.1
2 0 1.68 66 \; \$1.sdelay~.1 74.06 74 71 \; \$1.route 2 0 4 1 3 \;
pd dsp 1 \;;
#X msg 303 82 \; \$1.slop~.1 428 \; \$1.ship~.1 10000 \; \$1.stremolo~.1
20 0 1.68 50 \; \$1.sdelay~.1 50 95 71 \; \$1.route 2 0 4 1 3 \; pd
dsp 1 \;;
#X msg 121 214 \; \$1.slop~.1 6000 \; \$1.ship~.1 1000 \; \$1.stremolo~.1
20 0 1.68 50 \; \$1.sdelay~.1 120 60 40 \; \$1.route 2 0 4 1 3 \; pd
dsp 1 \;;
#X obj 556 132 loadbang;
#X obj 547 215 print;
#X msg 526 166 hello;
#X connect 0 0 11 0;
#X connect 5 0 0 0;
#X connect 6 0 12 0;
#X connect 7 0 6 0;
#X connect 8 0 13 0;
#X connect 9 0 8 0;
#X connect 14 0 16 0;
#X connect 16 0 15 0;
