#N canvas 611 75 1069 903 10;
#X obj 65 14 adc~ 1;
#X obj 65 83 *~ 1;
#X obj 43 702 s android;
#X obj 43 653 r test;
#X obj 90 53 r input-enable-switch;
#X obj 136 75 r input-pre-gain-knob;
#X obj 85 368 hip~;
#X obj 107 326 r high-pass-filter-cut-off-frequency-knob;
#X obj 65 113 *~ 1;
#X obj 119 363 r high-pass-filter-enable-switch;
#X obj 210 412 r high-pass-filter-level-led;
#X obj 65 156 s~ clean-input;
#X obj 44 200 r high-pass-filter-receive-from;
#X obj 44 295 r~;
#X obj 85 449 *~;
#X obj 44 449 *~;
#X obj 119 432 unpack;
#X obj 119 391 moses 1;
#X msg 119 412 1 0;
#X msg 158 412 0 1;
#X obj 44 503 s~ high-pass-filter-output;
#X obj 454 293 r~;
#X obj 495 447 *~;
#X obj 454 447 *~;
#X obj 529 430 unpack;
#X obj 529 389 moses 1;
#X msg 529 410 1 0;
#X msg 568 422 0 1;
#X obj 454 194 r low-pass-filter-receive-from;
#X obj 517 324 r low-pass-filter-cut-off-frequency-knob;
#X obj 529 361 r low-pass-filter-enable-switch;
#X obj 609 415 r low-pass-filter-level-led;
#X obj 454 501 s~ low-pass-filter-output;
#X obj 165 725 dac~;
#X obj 165 684 r~;
#X obj 495 366 lop~;
#X obj 165 580 r output-receive-from;
#X msg 44 262 set \$1;
#X obj 44 242 makefilename %s;
#X obj 44 221 symbol;
#X msg 454 271 set \$1;
#X obj 454 251 makefilename %s;
#X obj 454 230 symbol;
#X msg 165 652 set \$1;
#X obj 165 632 makefilename %s;
#X obj 165 611 symbol;
#X obj 376 673 print;
#X obj 378 631 loadbang;
#X msg 378 652 new version begin!;
#X obj 136 107 / 1024;
#X connect 0 0 1 0;
#X connect 1 0 8 0;
#X connect 3 0 2 0;
#X connect 4 0 1 1;
#X connect 5 0 49 0;
#X connect 6 0 14 0;
#X connect 7 0 6 1;
#X connect 8 0 11 0;
#X connect 9 0 17 0;
#X connect 12 0 39 0;
#X connect 13 0 6 0;
#X connect 13 0 15 0;
#X connect 14 0 20 0;
#X connect 15 0 20 0;
#X connect 16 0 15 1;
#X connect 16 1 14 1;
#X connect 17 0 18 0;
#X connect 17 1 19 0;
#X connect 18 0 16 0;
#X connect 19 0 16 0;
#X connect 21 0 23 0;
#X connect 21 0 35 0;
#X connect 22 0 32 0;
#X connect 23 0 32 0;
#X connect 24 0 23 1;
#X connect 24 1 22 1;
#X connect 25 0 26 0;
#X connect 25 1 27 0;
#X connect 26 0 24 0;
#X connect 27 0 24 0;
#X connect 28 0 42 0;
#X connect 29 0 35 1;
#X connect 30 0 25 0;
#X connect 34 0 33 0;
#X connect 34 0 33 1;
#X connect 35 0 22 0;
#X connect 36 0 45 0;
#X connect 37 0 13 0;
#X connect 38 0 37 0;
#X connect 39 0 38 0;
#X connect 40 0 21 0;
#X connect 41 0 40 0;
#X connect 42 0 41 0;
#X connect 43 0 34 0;
#X connect 44 0 43 0;
#X connect 45 0 44 0;
#X connect 47 0 48 0;
#X connect 48 0 46 0;
#X connect 49 0 8 1;