#N canvas 1097 240 663 841 10;
#X obj 79 496 dac~;
#X obj 88 14 adc~ 1;
#X obj 87 71 *~ 1;
#X obj 71 605 s android;
#X obj 71 556 r test;
#X obj 148 399 loadbang;
#X obj 147 605 metro 1000;
#X obj 147 626 tgl 15 0 empty empty empty 17 7 0 10 -262144 -1 -1 0
1;
#X obj 147 670 realtime;
#X obj 147 693 print PD_RUNS;
#X obj 147 647 sel 0;
#X obj 192 648 sel 1;
#X obj 249 579 notein;
#X obj 249 621 print MIDI;
#X obj 253 691 noteout;
#X msg 245 640 60;
#X obj 250 666 makenote 30 500;
#X obj 249 600 pack f f f;
#X obj 112 41 r input-enable-switch;
#X obj 163 62 r input-pre-gain-knob;
#X obj 402 34 r low-pass-filter-position;
#X obj 420 57 r chorus-position;
#X obj 437 80 r distortion-position;
#X obj 89 195 hip~;
#X obj 121 163 r high-pass-filter-cut-off-frequency-knob;
#X obj 196 185 r high-pass-filter-position;
#X obj 88 103 *~ 1;
#X obj 196 208 r high-pass-filter-enable-switch;
#X obj 197 232 r high-pass-filter-level-led;
#X connect 1 0 2 0;
#X connect 2 0 26 0;
#X connect 4 0 3 0;
#X connect 5 0 6 0;
#X connect 6 0 7 0;
#X connect 7 0 10 0;
#X connect 7 0 11 0;
#X connect 7 0 15 0;
#X connect 8 0 9 0;
#X connect 10 0 8 0;
#X connect 11 0 8 1;
#X connect 12 0 17 0;
#X connect 12 1 17 1;
#X connect 12 2 17 2;
#X connect 15 0 16 0;
#X connect 16 0 14 0;
#X connect 16 1 14 1;
#X connect 17 0 13 0;
#X connect 18 0 2 1;
#X connect 19 0 26 1;
#X connect 23 0 0 0;
#X connect 23 0 0 1;
#X connect 24 0 23 1;
#X connect 26 0 23 0;
